HIERARCHY
ROOT Hips
{
	OFFSET 0.000000 0.000000 0.000000 
	CHANNELS 6 Xposition Yposition Zposition Zrotation Yrotation Xrotation
	JOINT LeftUpLeg
	{
		OFFSET 1.363060 -1.794630 0.839290 
		CHANNELS 3 Zrotation Yrotation Xrotation
		JOINT LeftLeg
		{
			OFFSET 2.448110 -6.726130 0.000000 
			CHANNELS 3 Zrotation Yrotation Xrotation
			JOINT LeftFoot
			{
				OFFSET 2.562200 -7.039590 0.000000 
				CHANNELS 3 Zrotation Yrotation Xrotation
				JOINT LeftToeBase
				{
					OFFSET 0.157640 -0.433110 2.322550 
					CHANNELS 3 Zrotation Yrotation Xrotation
					End Site
					{
						OFFSET 0.000000 0.000000 0.000000 
					}
				}
			}
		}
	}
	JOINT RightUpLeg
	{
		OFFSET -1.305520 -1.794630 0.839290 
		CHANNELS 3 Zrotation Yrotation Xrotation
		JOINT RightLeg
		{
			OFFSET -2.542530 -6.985550 0.000000 
			CHANNELS 3 Zrotation Yrotation Xrotation
			JOINT RightFoot
			{
				OFFSET -2.568260 -7.056230 0.000000 
				CHANNELS 3 Zrotation Yrotation Xrotation
				JOINT RightToeBase
				{
					OFFSET -0.164730 -0.452590 2.363150 
					CHANNELS 3 Zrotation Yrotation Xrotation
					End Site
					{
						OFFSET 0.000000 0.000000 0.000000 
					}
				}
			}
		}
	}
	JOINT Spine
	{
		OFFSET 0.028270 2.035590 -0.193380 
		CHANNELS 3 Zrotation Yrotation Xrotation
		JOINT Spine1
		{
			OFFSET 0.056720 2.048850 -0.042750 
			CHANNELS 3 Zrotation Yrotation Xrotation
			JOINT Neck1
			{
				OFFSET -0.054170 1.746240 0.172020 
				CHANNELS 3 Zrotation Yrotation Xrotation
				JOINT Head
				{
					OFFSET 0.104070 1.761360 -0.123970 
					CHANNELS 3 Zrotation Yrotation Xrotation
					End Site
					{
						OFFSET 0.000000 0.000000 0.000000 
					}
				}
			}
			JOINT LeftArm
			{
				OFFSET 3.362410 1.200890 -0.311210 
				CHANNELS 3 Zrotation Yrotation Xrotation
				JOINT LeftForeArm
				{
					OFFSET 4.983000 -0.000000 -0.000000 
					CHANNELS 3 Zrotation Yrotation Xrotation
					JOINT LeftHand
					{
						OFFSET 3.483560 -0.000000 -0.000000 
						CHANNELS 3 Zrotation Yrotation Xrotation
						JOINT LeftHandIndex1
						{
							OFFSET 0.715260 -0.000000 -0.000000 
							CHANNELS 3 Zrotation Yrotation Xrotation
							End Site
							{
								OFFSET 0.000000 0.000000 0.000000 
							}
						}
					}
				}
			}
			JOINT RightArm
			{
				OFFSET -3.136600 1.374050 -0.404650 
				CHANNELS 3 Zrotation Yrotation Xrotation
				JOINT RightForeArm
				{
					OFFSET -5.241900 -0.000000 -0.000000 
					CHANNELS 3 Zrotation Yrotation Xrotation
					JOINT RightHand
					{
						OFFSET -3.444170 -0.000000 -0.000000 
						CHANNELS 3 Zrotation Yrotation Xrotation
						JOINT RightHandIndex1
						{
							OFFSET -0.622530 -0.000000 -0.000000 
							CHANNELS 3 Zrotation Yrotation Xrotation
							End Site
							{
								OFFSET 0.000000 0.000000 0.000000 
							}
						}
					}
				}
			}
		}
	}
}
MOTION
Frames: 13
Frame Time: 0.041667
0.803230 18.530090 7.361366 -8.759550 -25.200347 12.993055 -26.394239 -38.732207 18.608217 -4.295300 -3.540944 -2.312479 -8.876441 40.691792 -43.398068 1.486300 7.702300 21.813500 14.005374 28.608330 -12.970525 2.527660 -4.089022 10.742366 3.497736 -13.905555 6.917425 -0.002000 0.286600 -0.787500 39.233528 -11.900945 16.218343 -2.107092 -4.912703 -23.764903 21.800439 -22.873337 21.952063 4.811900 -9.804700 9.777900 -76.010471 -3.255471 85.394997 58.793429 -49.971151 -38.739018 0.379878 -0.127683 -11.808749 -7.125000 0.000000 0.000000 72.956653 -30.483050 26.707470 -92.379070 58.964139 -67.194567 -1.239328 1.299727 22.726010 7.125000 0.000000 0.000000 
0.835174 18.534608 7.347181 -8.743783 -25.587810 13.295910 -26.390668 -38.896721 18.380748 -4.304028 -3.546615 -2.341723 -8.742532 40.760277 -43.894551 1.578000 7.925500 22.488100 13.736013 28.679083 -13.119019 2.544900 -4.052110 10.468918 3.933302 -15.242540 7.185215 -0.003100 -0.360200 0.989700 39.678904 -12.223587 16.110165 -1.473974 -4.961178 -23.938016 20.793553 -22.197779 21.790483 4.637200 -9.557900 9.637100 -75.397123 -5.792780 86.788058 58.028529 -49.676297 -37.939640 0.404415 -0.072973 -11.419455 -7.125000 0.000000 0.000000 72.750869 -29.954127 26.155109 -92.695446 58.968541 -67.466297 -1.222752 1.296586 22.831304 7.125000 0.000000 0.000000 
0.862600 18.538181 7.333836 -8.592615 -26.014421 13.448190 -26.441972 -38.849660 18.032344 -4.304936 -3.538073 -2.338020 -8.702592 40.810540 -44.077082 1.646900 8.088100 22.982100 13.343616 28.752354 -13.186338 2.556803 -3.989989 10.145759 4.370919 -16.629976 7.673583 -0.034100 -1.192600 3.279000 39.699771 -12.683244 16.481284 -0.877492 -5.008725 -24.106768 20.292313 -21.575848 21.572985 4.582200 -9.293100 9.547900 -74.746919 -8.496268 88.024927 57.000122 -49.271568 -36.855874 0.379109 -0.091341 -11.686787 -7.125000 0.000000 0.000000 72.557209 -29.138721 25.676571 -92.874802 58.962253 -67.640259 -1.217855 1.290590 22.818862 7.125000 0.000000 0.000000 
0.882881 18.540178 7.322277 -8.283318 -26.576693 13.425475 -26.639093 -38.600119 17.666465 -4.304057 -3.524373 -2.302946 -8.659737 40.782082 -44.127723 1.714100 8.243300 23.455700 12.816296 28.790084 -13.198660 2.561557 -3.928194 9.858290 4.759592 -17.850067 8.115622 -0.076100 -1.779400 4.896400 39.404177 -13.203398 17.265085 -0.258275 -5.011279 -24.233653 19.957496 -20.972178 21.174723 4.548600 -9.025600 9.422400 -74.172510 -11.267256 89.062061 55.683714 -48.735975 -35.470438 0.319199 -0.162569 -12.619862 -7.125000 0.000000 0.000000 72.307367 -28.012718 25.351662 -92.740331 58.929020 -67.553536 -1.218043 1.285947 22.657897 7.125000 0.000000 0.000000 
0.897697 18.540283 7.310823 -7.996399 -27.178646 13.418123 -26.618697 -38.072070 17.015387 -4.292933 -3.486016 -2.217184 -8.716068 40.665588 -43.759965 1.752800 8.331000 23.724200 12.313363 28.891929 -13.218901 2.566112 -3.882545 9.646912 5.126444 -18.879980 8.114507 -0.099000 -2.029600 5.587400 39.060683 -13.631269 18.100772 0.298020 -4.982872 -24.355333 19.264584 -20.431163 20.739625 4.368800 -8.800900 9.269100 -73.713418 -13.956213 89.894352 54.122514 -48.077372 -33.842512 0.256282 -0.237337 -13.776307 -7.125000 0.000000 0.000000 72.004019 -26.650151 25.177017 -92.172883 58.857384 -67.095026 -1.218432 1.285477 22.237298 7.125000 0.000000 0.000000 
0.909676 18.537656 7.301156 -7.752822 -27.859559 13.464157 -26.493085 -37.411321 16.251694 -4.280619 -3.440243 -2.119356 -8.821639 40.579163 -43.295634 1.759300 8.345600 23.768700 11.834704 28.920782 -13.303027 2.580819 -3.806441 9.390634 5.342657 -19.448185 8.038321 -0.107000 -2.108700 5.806200 38.735396 -13.925563 18.825023 0.691081 -4.947556 -24.543360 18.409459 -19.902721 20.334523 4.126600 -8.590100 9.089600 -73.374227 -16.400620 90.555977 52.370699 -47.308089 -32.036554 0.191163 -0.313589 -15.427577 -7.125000 0.000000 0.000000 71.675045 -25.196134 25.136125 -91.171479 58.743860 -66.268165 -1.223528 1.288364 21.374685 7.125000 0.000000 0.000000 
0.919869 18.533558 7.297688 -7.438183 -28.772265 13.402057 -26.655002 -36.824449 15.798316 -4.285702 -3.420388 -2.045539 -8.703957 40.451029 -43.401794 1.820300 8.481200 24.185500 11.287896 28.964834 -13.325133 2.596300 -3.677915 9.064303 5.290702 -19.317082 8.314682 -0.095900 -1.997200 5.497800 38.243285 -14.167095 19.710069 0.971949 -4.888386 -24.747734 17.800596 -19.316383 19.825055 3.972200 -8.349300 8.867600 -73.195521 -18.620880 90.930102 50.375053 -46.388568 -30.009768 0.120069 -0.385790 -17.502750 -7.125000 0.000000 0.000000 71.285102 -23.676232 25.354376 -89.708691 58.568287 -65.028100 -1.224504 1.300006 20.529117 7.125000 0.000000 0.000000 
0.927960 18.529144 7.293905 -7.116369 -29.779040 13.353592 -26.749592 -36.120762 15.251467 -4.290192 -3.410006 -1.993134 -8.551209 40.225751 -43.455280 1.916800 8.690600 24.832300 10.717941 29.207339 -13.337607 2.612130 -3.505827 8.659723 5.092924 -18.816964 8.773622 -0.063800 -1.630200 4.484700 37.652351 -14.347842 20.736920 1.194088 -4.804533 -24.891705 17.558821 -18.742369 18.990688 3.925600 -8.108800 8.598000 -73.120992 -20.875425 91.093536 48.191278 -45.307721 -27.824294 0.047100 -0.453932 -19.879515 -7.125000 0.000000 0.000000 70.761252 -21.954890 25.841743 -87.808899 58.306319 -63.387932 -1.215838 1.321460 19.874046 7.125000 0.000000 0.000000 
0.931533 18.526307 7.286024 -6.731344 -30.779440 13.381825 -26.731401 -35.264874 14.438639 -4.284390 -3.395641 -1.962962 -8.575639 40.083606 -43.125516 1.998600 8.863200 25.368500 10.055849 29.562658 -13.454491 2.635141 -3.283111 8.092437 4.917237 -18.419076 9.297534 -0.029700 -1.113100 3.060000 37.084677 -14.424189 21.728017 1.387080 -4.687469 -24.985565 17.470537 -18.276286 17.937571 3.905200 -7.919900 8.310800 -73.118530 -23.270074 91.247844 45.909380 -44.078485 -25.581016 -0.027167 -0.515096 -22.503510 -7.125000 0.000000 0.000000 70.166929 -20.032418 26.376981 -85.639473 57.965702 -61.492016 -1.200563 1.346449 19.216723 7.125000 0.000000 0.000000 
0.930061 18.527043 7.280350 -6.270829 -31.852280 13.405479 -26.847516 -34.569406 13.713086 -4.285579 -3.380464 -1.927390 -8.504116 39.968076 -43.117827 2.133700 9.139200 26.231700 9.316978 29.998373 -13.611450 2.657963 -3.027665 7.401865 4.810692 -18.285714 9.977304 -0.008100 -0.582100 1.599700 36.462673 -14.437950 22.782497 1.572823 -4.541273 -25.048984 17.139223 -17.838028 16.848999 3.794200 -7.754600 8.013800 -73.319900 -25.674595 91.471354 43.596867 -42.712752 -23.340527 -0.148177 -0.603524 -25.872255 -7.125000 0.000000 0.000000 69.559425 -17.936304 26.897668 -83.345601 57.562196 -59.450390 -1.175135 1.372503 18.552659 7.125000 0.000000 0.000000 
0.925228 18.531666 7.284553 -6.341931 -32.790565 13.901484 -26.539331 -34.622968 13.246506 -4.307527 -3.412901 -2.011507 -8.201258 39.958074 -43.999522 2.346400 9.553200 27.541700 9.069735 30.475678 -13.861963 2.687716 -2.781523 6.722673 4.707916 -18.218248 10.628832 -0.001900 -0.281700 0.774100 36.036447 -14.380067 23.698369 1.502748 -4.491364 -24.985072 16.660384 -17.350265 15.694576 3.632900 -7.571000 7.710700 -73.762162 -28.040312 91.782013 41.474498 -41.319634 -21.288287 -0.366267 -0.761971 -30.691077 -7.125000 0.000000 0.000000 68.896793 -15.594884 27.380878 -81.006252 57.096850 -57.327307 -1.138999 1.398965 17.874816 7.125000 0.000000 0.000000 
0.913879 18.536395 7.300735 -6.867545 -33.498397 14.842631 -25.860908 -35.239445 12.944691 -4.337612 -3.474584 -2.195029 -7.899934 40.214479 -45.281120 2.536000 9.903000 28.663200 9.266571 30.924844 -14.164309 2.724390 -2.558669 6.128319 4.584743 -18.034233 10.985224 -0.002600 -0.331900 0.912000 35.763866 -14.388260 24.486698 1.276940 -4.573054 -24.778315 16.176041 -16.734605 14.441245 3.472100 -7.326800 7.394600 -74.241680 -30.432373 91.090246 39.016202 -39.612526 -19.054528 -0.459064 -0.793614 -33.114038 -7.125000 0.000000 0.000000 68.107212 -12.818626 27.949051 -78.438486 56.533908 -54.957625 -1.088318 1.426708 17.158343 7.125000 0.000000 0.000000 
0.896646 18.538076 7.313450 -6.854694 -34.253815 15.412644 -25.576363 -35.194978 12.279667 -4.342073 -3.462508 -2.221516 -7.888488 40.406532 -45.604375 2.616000 10.045800 29.125200 8.996045 31.383780 -14.470325 2.738440 -2.384084 5.651314 4.508939 -17.915076 11.238504 -0.001700 -0.267000 0.733700 35.257619 -14.528633 25.415583 1.333409 -4.606948 -24.634968 15.749353 -15.999526 13.195005 3.338800 -7.024400 7.070200 -74.638993 -32.722094 90.013828 36.654909 -37.809785 -16.972684 -0.573033 -0.808189 -35.198155 -7.125000 0.000000 0.000000 67.212715 -9.647705 28.629495 -75.696378 55.888244 -52.370009 -1.017336 1.454915 16.258631 7.125000 0.000000 0.000000 
